<svg width="24" height="24" viewBox="0 0 24 24" fill="none" xmlns="http://www.w3.org/2000/svg">
<path fill-rule="evenodd" clip-rule="evenodd" d="M11.4309 6.24159C11.6638 5.7696 12.3369 5.76959 12.5698 6.24159L13.6466 8.42364L16.0533 8.77311C16.574 8.84873 16.7821 9.48861 16.4054 9.85607L14.6643 11.5545L15.0749 13.9526C15.1636 14.4712 14.6193 14.8666 14.1536 14.6219L12.0009 13.4906L9.8459 14.6225C9.38002 14.8672 8.83576 14.4716 8.92477 13.953L9.33637 11.5545L7.59452 9.85633C7.21766 9.48893 7.42569 8.84888 7.94654 8.77324L10.3541 8.42364L11.4309 6.24159ZM9.35938 9.83119L10.6713 11.1334C10.5937 11.6233 10.5095 12.1121 10.4252 12.6009L10.3674 12.9366C10.4715 12.882 10.5754 12.8269 10.6793 12.7718C11.1145 12.5408 11.5498 12.3099 12.0009 12.1111C12.4518 12.3098 12.8867 12.5406 13.3217 12.7715C13.425 12.8264 13.5291 12.8816 13.6326 12.936C13.6136 12.825 13.5948 12.7139 13.576 12.6028C13.493 12.1118 13.4099 11.6209 13.3083 11.1334C13.6702 10.7776 14.0336 10.4233 14.397 10.0689L14.6409 9.83113C14.5213 9.81377 14.4018 9.79664 14.2822 9.77951C13.7963 9.70988 13.3103 9.64024 12.8268 9.55564C12.5766 9.08637 12.3479 8.6069 12.1191 8.12708L12.0009 7.87931C11.9112 8.06646 11.8211 8.25347 11.7311 8.44048C11.5523 8.81183 11.3736 9.18317 11.1972 9.55564C10.7001 9.63789 10.2014 9.70975 9.70266 9.7816L9.35938 9.83119ZM21 5.10937C21 4.29021 20.5064 3.4451 19.6117 3.14912L14.016 1.32139C12.7067 0.893743 11.296 0.892539 9.98547 1.31977C8.2085 1.89908 5.40415 2.81398 4.38992 3.14857C3.55651 3.42415 3 4.23843 3 5.10986V10.2747C3 13.8377 4.58193 16.6251 6.30459 18.5969C8.02036 20.5608 9.93982 21.794 10.8147 22.3009C11.5526 22.7285 12.451 22.7272 13.1876 22.2982C14.0615 21.7893 15.9801 20.5515 17.6952 18.5866C19.4168 16.6144 21 13.8285 21 10.2747V5.10937ZM19.1423 4.57379L19.1406 4.57321L13.5503 2.74726C12.5429 2.41821 11.458 2.41741 10.4504 2.7459C8.67265 3.32546 5.87274 4.23892 4.86083 4.57273L4.85963 4.57313C4.65855 4.63977 4.5 4.8495 4.5 5.10986V10.2747C4.5 13.3653 5.86686 15.816 7.43421 17.61C9.00121 19.4036 10.7679 20.5402 11.5667 21.003C11.8383 21.1604 12.1614 21.16 12.4327 21.002C13.2311 20.537 14.998 19.3956 16.5652 17.6002C18.1328 15.8043 19.5 13.355 19.5 10.2747V5.10937C19.5 4.84998 19.3425 4.64092 19.1423 4.57379Z" fill="white"/>
</svg>
